<?xml version="1.0" encoding="utf-8"?>
<svg xmlns="http://www.w3.org/2000/svg" viewBox="0 0 220 236" xmlns:bx="https://boxy-svg.com" width="220px" height="236px"><defs><bx:export><bx:file format="svg" path="bee.svg"/></bx:export></defs><ellipse style="stroke: rgb(0, 0, 0); fill: rgb(255, 232, 0);" cx="109.804" cy="123.529" rx="50.42" ry="68.067"/><path d="M 43.179 103.613 C 45.614 103.149 48.661 103.149 51.162 104.034 C 53.79 104.963 56.71 107.192 58.515 109.286 C 60.193 111.231 60.961 113.175 61.877 116.008 C 63.055 119.651 63.783 124.04 64.398 129.874 C 65.238 137.839 65.982 150.73 65.658 160.546 C 65.35 169.878 64.897 180.447 62.717 187.437 C 61.006 192.925 58.072 197.469 55.364 200.252 C 53.276 202.398 50.99 203.34 48.641 204.034 C 46.362 204.707 44.52 204.777 41.499 204.454 C 37.195 203.993 29.343 202.26 24.692 200.252 C 20.699 198.529 17.047 196.192 14.818 193.74 C 12.959 191.694 12.231 189.908 11.457 187.017 C 10.442 183.23 10.01 178.456 10.196 172.311 C 10.452 163.871 12.219 147.271 14.398 139.958 C 15.818 135.193 17.608 132.325 19.65 130.084 C 21.284 128.29 23.088 127.426 25.112 126.723 C 27.206 125.996 30.91 127.386 32.045 125.882 C 33.373 124.124 30.418 118.792 31.204 115.588 C 32.001 112.343 34.659 108.563 36.877 106.555 C 38.746 104.862 40.876 104.053 43.179 103.613 Z M 170.07 105.014 C 172.65 104.617 176.11 105.052 178.473 105.854 C 180.567 106.565 182.29 107.78 183.725 109.216 C 185.161 110.651 186.125 111.826 187.087 114.468 C 188.601 118.629 188.356 130.1 190.448 133.585 C 191.752 135.756 194.149 135.411 195.49 136.737 C 196.788 138.02 197.544 139.126 198.431 141.359 C 199.762 144.706 200.258 152.075 201.793 156.064 C 203.054 159.341 205.424 160.931 206.415 164.048 C 207.525 167.538 208.01 171.962 207.675 176.232 C 207.311 180.886 205.627 187.001 203.894 190.938 C 202.464 194.186 200.853 196.845 198.641 198.711 C 196.538 200.487 193.555 201.536 191.078 202.073 C 188.8 202.567 187.21 202.831 184.356 202.073 C 179.983 200.911 170.76 196.896 166.919 193.249 C 163.795 190.284 162.529 187.712 161.457 182.955 C 159.922 176.146 161.251 159.462 161.457 154.384 C 161.552 152.02 161.998 152.569 161.877 150.182 C 161.609 144.91 157.149 126.132 157.255 119.93 C 157.313 116.506 157.916 115.206 158.936 113.207 C 159.951 111.217 161.526 109.313 163.347 107.955 C 165.218 106.56 167.631 105.389 170.07 105.014 Z" style="fill: rgb(255, 255, 255); stroke: rgba(129, 151, 57, 0); stroke-width: 0px;"/><path d="M 197.301 118.656 C 189.259 108.122 177.229 96.157 166.351 92.007 C 163.918 69.083 147.686 50.231 126.143 43.914 L 156.708 13.35 C 159.637 10.421 159.637 5.672 156.708 2.743 C 153.778 -0.186 149.03 -0.186 146.101 2.743 L 110.315 38.528 L 74.839 3.054 C 71.909 0.125 67.161 0.125 64.232 3.054 C 61.303 5.983 61.303 10.732 64.232 13.66 L 94.487 43.913 C 72.966 50.225 56.746 69.045 54.288 91.937 C 43.36 96.019 31.236 108.061 23.146 118.656 C 14.635 129.803 0.358 152.424 0.358 178.677 C 0.358 197.59 15.746 212.976 34.659 212.976 C 51.61 212.976 65.722 200.611 68.466 184.429 C 77.188 194.088 89.205 200.704 102.726 202.514 L 102.726 228.368 C 102.726 232.51 106.083 235.868 110.226 235.868 C 114.369 235.868 117.726 232.51 117.726 228.368 L 117.726 202.514 C 131.246 200.704 143.263 194.088 151.984 184.429 C 154.729 200.612 168.839 212.976 185.791 212.976 C 204.703 212.976 220.09 197.59 220.09 178.677 C 220.088 152.423 205.811 129.803 197.301 118.656 Z M 151.491 114.877 L 68.958 114.877 L 68.958 105.494 L 151.491 105.494 L 151.491 114.877 Z M 68.958 129.877 L 151.491 129.877 L 151.491 139.261 L 68.958 139.261 L 68.958 129.877 Z M 110.315 56.636 C 130.558 56.636 147.438 71.259 150.978 90.494 L 69.652 90.494 C 73.192 71.259 90.072 56.636 110.315 56.636 Z M 53.958 178.676 C 53.958 189.318 45.301 197.975 34.659 197.975 C 24.017 197.975 15.358 189.318 15.358 178.676 C 15.358 147.459 40.076 118.762 53.958 109.014 L 53.958 146.761 L 53.958 178.676 Z M 110.225 188.028 C 90.032 188.028 73.192 173.445 69.653 154.261 L 150.796 154.261 C 147.256 173.445 130.418 188.028 110.225 188.028 Z M 185.79 197.975 C 175.148 197.975 166.491 189.318 166.491 178.676 L 166.491 146.761 L 166.491 109.014 C 180.372 118.762 205.089 147.459 205.089 178.676 C 205.088 189.318 196.431 197.975 185.79 197.975 Z" style=""/></svg>