<?xml version="1.0" encoding="utf-8"?>
<svg xmlns="http://www.w3.org/2000/svg" viewBox="0 0 286 236" xmlns:bx="https://boxy-svg.com" width="286px" height="236px">
    <defs>
        <bx:export><bx:file format="svg"/></bx:export>
    </defs>
    <ellipse style="stroke: rgb(255, 220, 0); stroke-width: 0px; fill: rgb(241, 234, 52);" cx="75.029" cy="98.622" rx="19.05" ry="21.249"/>
    <ellipse style="stroke: rgb(255, 220, 0); stroke-width: 0px; fill: rgb(241, 234, 52);" cx="210.873" cy="98.036" rx="21.249" ry="22.421"/>
    <path stroke="rgb(0,0,0)" d="M 54.335 31.841 C 57.255 31.191 60.608 31.439 63.567 32.28 C 66.624 33.15 69.763 36.88 72.359 37.116 C 74.49 37.31 76.057 35.29 78.074 34.918 C 80.153 34.535 81.822 34.553 84.669 34.918 C 88.843 35.453 97.332 37.203 101.375 38.875 C 104.296 40.083 106.237 41.649 107.749 43.051 C 108.928 44.144 108.812 45.626 110.167 46.348 C 111.974 47.311 115.984 46.303 118.52 47.227 C 121.036 48.145 123.485 49.814 125.334 51.843 C 127.255 53.952 128.779 57.076 129.73 59.757 C 130.627 62.283 129.529 65.284 131.049 67.45 C 132.815 69.966 138.576 71.182 140.721 73.385 C 142.437 75.147 143.173 76.666 143.798 79.1 C 144.594 82.199 144.736 87.046 144.238 90.97 C 143.732 94.96 140.632 99.556 140.721 102.84 C 140.772 104.725 141.873 106.065 142.659 107.556 C 142.72 107.16 142.805 106.76 142.919 106.357 C 143.832 103.122 149.217 98.68 149.513 96.246 C 149.703 94.692 148.089 94.255 147.755 92.729 C 147.313 90.71 146.969 87.427 147.755 84.815 C 148.625 81.926 152.109 77.462 153.25 76.243 C 153.748 75.711 154.038 76.265 154.349 75.583 C 155.211 73.697 154.259 63.661 155.668 59.317 C 156.835 55.72 159.026 52.708 161.164 50.744 C 162.991 49.065 165.153 48.253 167.318 47.667 C 169.477 47.083 172.346 48.108 174.132 47.227 C 175.802 46.404 175.681 44.537 177.869 42.831 C 181.65 39.885 191.96 33.315 197.652 31.841 C 201.985 30.719 205.435 31.122 209.083 32.28 C 212.927 33.501 215.721 37.953 220.073 39.314 C 224.93 40.833 232.021 38.511 237.219 40.193 C 242.337 41.85 247.709 45.711 251.067 49.206 C 254.013 52.272 254.338 56.627 257.002 59.537 C 259.728 62.514 264.919 64.039 267.333 66.791 C 269.427 69.178 270.523 71.587 271.29 74.704 C 272.177 78.312 270.56 83.5 271.729 87.453 C 272.901 91.414 277.14 94.401 278.324 98.444 C 279.536 102.588 279.734 108.289 278.763 112.072 C 277.92 115.356 275.041 118.651 273.707 120.205 C 272.928 121.114 272.165 120.818 271.729 121.744 C 271.071 123.144 272.134 126.464 271.29 128.778 C 270.34 131.381 267.792 134.597 265.794 136.471 C 264.084 138.076 261.894 138.335 260.299 139.768 C 258.656 141.245 257.513 143.989 256.122 145.264 C 255.022 146.272 253.916 146.071 252.825 147.242 C 251.269 148.912 250.53 153.312 248.209 155.375 C 245.731 157.579 242.23 158.854 238.098 159.771 C 232.969 160.909 224.348 159.188 219.194 160.651 C 214.868 161.878 212.034 165.626 208.643 166.805 C 205.69 167.833 200.816 166.128 200.07 167.904 C 199.142 170.116 205.8 175.956 207.104 181.093 C 208.576 186.891 208.161 196.064 207.544 201.316 C 207.086 205.214 206.269 207.72 204.906 210.548 C 203.552 213.359 201.532 216.266 199.411 218.241 C 197.458 220.06 195.466 221.373 192.817 222.198 C 189.756 223.151 186.218 223.259 181.826 223.077 C 176.154 222.843 166.441 221.968 161.164 220 C 157.021 218.455 153.728 215.843 151.712 213.625 C 150.163 211.922 149.609 210.478 149.074 208.35 C 148.434 205.803 148.474 202.097 148.634 199.118 C 148.788 196.242 150.22 194.582 149.953 190.765 C 149.53 184.714 144.443 172.292 143.359 164.827 C 142.48 158.776 142.501 152.994 142.919 149.001 C 143.217 146.148 144.404 145.037 144.678 142.406 C 145.019 139.123 143.68 133.992 144.238 130.536 C 144.725 127.515 147.42 125.287 147.315 122.623 C 147.22 120.201 144.791 117.743 143.716 115.285 C 143.654 116.114 143.538 116.951 143.359 117.787 C 142.667 121.021 139.566 124.298 138.962 127.899 C 138.34 131.611 140 136.98 139.842 139.768 C 139.739 141.581 138.826 142.181 138.962 143.725 C 139.138 145.701 141.142 148.18 141.6 150.759 C 142.097 153.56 142.198 156.874 141.6 159.991 C 140.962 163.317 137.335 168.226 137.644 170.103 C 137.824 171.196 139.085 170.911 139.842 171.861 C 140.961 173.265 142.718 175.763 143.359 178.455 C 144.129 181.696 144.362 185.685 143.359 190.325 C 142.033 196.458 136.866 207.811 134.127 212.307 C 132.463 215.035 131.64 216.053 129.511 217.362 C 126.977 218.92 122.407 219.051 119.399 220.44 C 116.591 221.736 114.904 224.362 111.926 225.275 C 108.583 226.301 104.197 226.096 100.056 225.715 C 95.582 225.304 89.623 224.328 85.988 222.638 C 83.009 221.252 80.756 219.315 79.173 217.142 C 77.685 215.099 76.985 212.612 76.536 210.108 C 76.067 207.497 76.276 205.017 76.536 201.756 C 76.861 197.669 77.115 192.547 78.734 187.248 C 80.679 180.882 89.811 169.276 88.406 166.146 C 87.388 163.88 81.701 166.438 78.074 165.487 C 73.918 164.396 69.277 160.242 64.886 159.332 C 60.778 158.48 56.707 160.722 52.576 159.771 C 48.067 158.734 42.798 155.456 38.948 152.737 C 35.443 150.263 33.518 146.861 30.155 144.385 C 26.606 141.771 21.068 140.54 18.066 137.57 C 15.27 134.805 13.385 131.144 12.351 127.459 C 11.291 123.686 11.655 116.835 11.911 115.149 C 12.004 114.536 12.423 114.75 12.351 114.27 C 12.195 113.235 9.568 110.652 8.834 108.555 C 8.083 106.411 7.603 103.951 7.954 101.521 C 8.342 98.84 11.621 95.615 11.471 93.168 C 11.338 90.998 8.617 89.553 7.954 87.453 C 7.278 85.311 6.926 82.871 7.515 80.419 C 8.201 77.561 10.268 73.505 12.57 71.407 C 14.736 69.434 19.197 69.961 20.703 67.89 C 22.223 65.8 20.486 61.63 21.583 58.877 C 22.711 56.047 24.735 53.475 27.518 51.184 C 30.84 48.449 37.787 46.959 40.926 44.15 C 43.519 41.829 43.751 38.287 45.982 36.237 C 48.218 34.182 51.39 32.496 54.335 31.841 Z M 84.009 74.924 C 81.989 74.434 78.352 78.257 75.656 78.88 C 73.24 79.439 70.89 79.317 68.623 78.88 C 66.346 78.442 64.308 76.219 62.028 76.243 C 59.627 76.267 56.302 77.316 54.555 79.32 C 52.578 81.586 53.188 87.166 51.477 89.871 C 49.962 92.266 45.729 92.49 45.322 95.147 C 44.769 98.76 52.046 107.432 52.796 110.973 C 53.228 113.015 51.744 114.277 52.356 115.369 C 52.995 116.509 55.434 116.22 56.753 117.567 C 58.465 119.316 59.533 125.047 61.149 125.92 C 62.251 126.516 63.109 125.174 64.666 125.041 C 66.93 124.848 71.24 124.725 73.898 125.481 C 76.289 126.16 78.968 128.854 80.053 128.998 C 80.545 129.063 80.587 128.965 80.932 128.558 C 81.7 127.652 82.181 123.882 84.009 121.964 C 86.213 119.651 91.251 119.701 94.121 116.249 C 97.936 111.658 102.952 96.72 102.913 94.267 C 102.901 93.513 102.477 93.977 102.034 93.388 C 100.979 91.986 98.822 86.366 96.319 84.156 C 93.932 82.048 89.62 81.93 87.526 80.199 C 85.756 78.735 85.747 75.345 84.009 74.924 Z M 204.467 72.286 C 201.951 72.587 200.578 74.903 198.312 75.363 C 195.914 75.85 192.254 74.015 190.399 74.924 C 188.769 75.722 188.011 77.445 187.321 79.76 C 186.321 83.117 187.702 90.584 186.442 94.267 C 185.441 97.193 181.539 99.937 181.606 100.862 C 181.639 101.317 182.298 100.794 182.925 101.301 C 184.451 102.536 188.979 108.121 190.838 111.413 C 192.444 114.256 191.167 117.475 193.916 119.766 C 198.11 123.26 215.368 127.573 218.535 126.8 C 219.869 126.474 218.844 125.163 219.853 124.162 C 221.671 122.359 229.231 120.204 230.844 117.567 C 232.113 115.494 230.312 112.874 230.844 110.533 C 231.411 108.038 234.247 105.184 234.361 103.06 C 234.453 101.359 232.911 100.31 232.603 98.664 C 232.26 96.835 232.199 94.572 232.603 92.509 C 233.03 90.324 235.949 87.151 235.24 85.914 C 234.55 84.709 230.784 85.79 228.646 85.035 C 226.38 84.235 223.93 82.853 222.052 81.079 C 220.093 79.229 218.354 74.605 217.216 74.045 C 216.665 73.773 216.692 74.475 215.897 74.484 C 214.035 74.505 207.57 71.915 204.467 72.286 Z"
          style="stroke: rgb(129, 151, 57); fill: red; stroke-width: 0px;"/>
    <g transform="matrix(1, 0, 0, 1, 0.243091, -24.81512)">
        <path d="m285.563,123.53c0-41.433-33.708-75.141-75.141-75.141-18.647,0-35.729,6.83-48.877,18.116l7.121-32.343c0.891-4.045-1.666-8.047-5.712-8.938-4.045-0.89-8.047,1.668-8.937,5.712l-11.15,50.642-11.039-50.355c-0.888-4.046-4.891-6.609-8.932-5.72-4.046,0.887-6.607,4.886-5.72,8.932l7.076,32.277c-13.181-11.408-30.352-18.323-49.111-18.323-41.433,0-75.141,33.708-75.141,75.141 0,40.765 32.63,74.052 73.144,75.114-3.525,6.134-5.503,13.19-5.503,20.551 0,22.784 18.536,41.32 41.32,41.32 13.967,0 26.337-6.965 33.82-17.605 7.482,10.64 19.852,17.605 33.82,17.605 22.784,0 41.32-18.536 41.32-41.32 0-7.361-1.977-14.417-5.503-20.551 40.515-1.062 73.145-34.349 73.145-75.114zm-176.602,121.985c-14.513,0-26.32-11.807-26.32-26.32 0-11.005 6.938-20.941 17.266-24.725 3.866-1.416 5.867-5.685 4.484-9.563-1.384-3.878-5.636-5.914-9.524-4.564-6.358,2.208-12.995,3.327-19.726,3.327-33.162-2.84217e-14-60.141-26.979-60.141-60.14 0-33.162 26.979-60.141 60.141-60.141 28.925,0 53.14,20.528 58.857,47.778l.073,.335c0.792,3.887 1.21,7.909 1.21,12.027v95.665c0,14.514-11.807,26.321-26.32,26.321zm101.461-61.845c-6.73,0-13.367-1.12-19.726-3.327-3.892-1.35-8.141,0.687-9.523,4.564-1.384,3.878 0.617,8.146 4.483,9.563 10.327,3.784 17.266,13.72 17.266,24.725 0,14.513-11.808,26.32-26.32,26.32-14.513,0-26.32-11.807-26.32-26.32v-95.665c0-3.005 0.228-5.957 0.655-8.844l1.759-7.985c7.299-24.993 30.406-43.311 57.727-43.311 33.162,0 60.141,26.979 60.141,60.141-0.001,33.16-26.98,60.139-60.142,60.139z"/>
        <path d="m210.422,90.664c-18.122,0-32.865,14.743-32.865,32.865 0,18.122 14.743,32.865 32.865,32.865 18.122,0 32.865-14.743 32.865-32.865 0-18.121-14.743-32.865-32.865-32.865zm0,50.731c-9.851,0-17.865-8.014-17.865-17.865 0-9.851 8.015-17.865 17.865-17.865 9.851,0 17.865,8.014 17.865,17.865 0,9.851-8.015,17.865-17.865,17.865z"/>
        <path d="m75.141,90.664c-18.122,0-32.865,14.743-32.865,32.865 0,18.122 14.743,32.865 32.865,32.865 18.122,0 32.865-14.743 32.865-32.865 0-18.121-14.743-32.865-32.865-32.865zm0,50.731c-9.851,0-17.865-8.014-17.865-17.865 0-9.851 8.014-17.865 17.865-17.865 9.851,0 17.865,8.014 17.865,17.865 0,9.851-8.014,17.865-17.865,17.865z"/>
    </g>
</svg>