<svg fill="#000000" xmlns="http://www.w3.org/2000/svg" xmlns:xlink="http://www.w3.org/1999/xlink" viewBox="0 0 606.268 606.268">
<g>
	<g>
		<path d="M577.09,294.952c-8.902-11.657-19.525-21.806-31.574-30.165c-5.66-3.927-11.576-7.417-17.707-10.451
			c0.15-2.826,0.227-5.654,0.227-8.48c0-21.506-4.223-42.391-12.549-62.075c-8.032-18.991-19.522-36.038-34.152-50.667
			c-14.629-14.628-31.676-26.119-50.666-34.151c-19.685-8.326-40.569-12.547-62.075-12.547c-26.931,0-53.566,6.856-77.027,19.827
			c-15.18,8.393-28.937,19.277-40.637,32.067c-15.767-6.681-32.702-10.407-49.999-10.92c-1.357-0.04-2.736-0.061-4.1-0.061
			c-18.524-0.001-36.579,3.659-53.666,10.881c-16.412,6.937-31.197,16.838-43.944,29.429c-12.772,12.618-22.86,27.306-29.985,43.659
			c-7.434,17.065-11.287,35.156-11.452,53.77c-0.019,2.129,0.012,4.261,0.089,6.39c-14.664,10.479-27.188,23.794-36.772,39.202
			C7.719,332.172,0.596,356.979,0.501,382.396c-0.068,18.411,3.544,36.338,10.738,53.284c6.879,16.205,16.721,30.801,29.254,43.38
			c12.687,12.734,27.479,22.755,43.964,29.782c17.134,7.306,35.262,11.009,53.878,11.009H464.86
			c19.084,0,37.654-3.798,55.198-11.287c16.889-7.21,32.031-17.492,45.006-30.562c12.824-12.915,22.877-27.899,29.879-44.536
			c7.316-17.381,10.957-35.766,10.82-54.644c-0.109-15.405-2.719-30.548-7.752-45.008
			C593.143,319.832,586.104,306.756,577.09,294.952z M464.86,477.012H138.335c-51.952,0-95.188-42.505-94.995-94.456
			c0.134-36.159,20.666-67.507,50.687-83.145c5.904-3.075,9.255-9.581,8.086-16.134c-1.032-5.781-1.547-11.741-1.493-17.83
			c0.465-52.505,44.016-95.282,96.201-95.277c0.94,0,1.892,0.014,2.837,0.042c18.538,0.55,35.75,6.359,50.215,15.975
			c2.64,1.755,5.631,2.603,8.581,2.603c4.893,0,9.674-2.333,12.555-6.732c20.821-31.793,56.742-52.802,97.583-52.802
			c64.396,0,116.6,52.203,116.6,116.6c0,7.965-0.81,15.737-2.34,23.248c-1.568,7.698,3.029,15.362,10.562,17.594
			c39.974,11.845,69.196,48.692,69.511,92.435C563.312,432.965,518.695,477.012,464.86,477.012z"/>
	</g>
</g>
</svg>