<?xml version="1.0" encoding="iso-8859-1"?>
<!-- Uploaded to: SVG Repo, www.svgrepo.com, Generator: SVG Repo Mixer Tools -->
<!DOCTYPE svg PUBLIC "-//W3C//DTD SVG 1.1//EN" "http://www.w3.org/Graphics/SVG/1.1/DTD/svg11.dtd">
<svg fill="#ff5555" stroke="#000000" stroke-width="10" version="1.1" id="Capa_1" xmlns="http://www.w3.org/2000/svg" xmlns:xlink="http://www.w3.org/1999/xlink"
	 width="800px" height="800px" viewBox="0 -5 420.459 425.459"
	 xml:space="preserve">
<g>
	<g>
		<path d="M167.12,217.533c-6.519-6.821-12.401-15.314-17.489-25.36c-12.203-24.108-18.924-55.638-18.924-88.78
			c0-26.543,4.28-52.027,12.378-73.695c1.563-4.18,3.252-8.178,5.062-11.983c-2.048-4.013-5.713-7.004-10.122-8.172
			c-4.989-1.321-10.307-0.143-14.275,3.152c-27.658,22.983-43.52,55.97-43.52,90.501C80.229,155.942,116.562,200.915,167.12,217.533
			z"/>
		<path d="M289.753,103.392c0,33.143-6.722,64.672-18.925,88.78c-5.087,10.045-10.97,18.539-17.489,25.361
			c50.558-16.618,86.891-61.591,86.891-114.337c0-34.531-15.862-67.518-43.521-90.502c-3.968-3.295-9.288-4.474-14.274-3.152
			c-4.409,1.168-8.074,4.159-10.122,8.172c1.81,3.806,3.5,7.804,5.062,11.983C285.473,51.365,289.753,76.849,289.753,103.392z"/>
		<path d="M318.592,228.953c-2.843-0.363-5.84-0.547-8.912-0.547c-19.42,0-42.373,7.368-62.974,20.215
			c-9.701,6.047-18.485,13.056-25.978,20.59v-37.117c15.735-3.977,29.722-16.932,40.12-37.472
			c11.073-21.872,17.171-50.633,17.171-80.982c0-49.618-16.281-93.18-41.478-110.982c-4.265-3.012-9.817-3.5-14.541-1.276
			c-4.724,2.222-7.889,6.813-8.285,12.018c-0.778,10.202-2.023,13.122-3.488,13.122s-2.71-2.92-3.489-13.122
			c-0.396-5.204-3.561-9.796-8.286-12.018c-4.723-2.224-10.276-1.736-14.541,1.276c-25.196,17.803-41.477,61.364-41.477,110.982
			c0,30.35,6.099,59.11,17.172,80.982c10.399,20.541,24.384,33.495,40.12,37.472v55.601c-7.531-7.567-16.337-14.563-25.977-20.573
			c-20.601-12.846-43.554-20.213-62.974-20.213c-3.072,0-6.07,0.184-8.912,0.545c-1.49,0.189-2.816,1.041-3.611,2.314
			s-0.975,2.839-0.489,4.261c6.832,20.013,25.261,40.906,49.296,55.896c17.059,10.637,35.724,17.502,52.666,19.555v90.981h21
			V310.972c16.947-2.049,35.615-8.919,52.666-19.551c24.036-14.988,42.464-35.883,49.296-55.896
			c0.485-1.422,0.306-2.985-0.489-4.261S320.082,229.141,318.592,228.953z"/>
	</g>
</g>
</svg>