<?xml version="1.0" encoding="UTF-8"?>
<svg width="210" height="210" version="1.1" viewBox="0 0 55.562498 55.562501" xmlns="http://www.w3.org/2000/svg">
 <g transform="translate(0 -241.44)">
  <path d="m13.148 247.03c-14.123 0.24566-14.887 33.786 14.634 44.389 37.787-13.572 25.954-64.724 0-35.53-5.6774-6.3862-10.679-8.9277-14.634-8.8589z" fill="#f55" style="paint-order:normal"/>
  <path d="m36.635 268.71c-5.7514-0.0161-11.279 1.8876-17.617 2.1038-4.6813 0.1596-9.7793-0.60018-13.857-1.3131 2.8429 8.5669 9.9321 17.361 22.62 21.918 11.644-4.1821 18.575-11.933 21.834-19.801-3.3706-1.3493-7.6726-2.6704-11.828-2.8774-0.38572-0.0193-0.76999-0.0289-1.1534-0.03z" fill="#f00" fill-rule="evenodd"/>
  <path d="m13.132 246.1c-3.897 0.0678-6.9378 2.5045-8.6426 6.0762-1.7048 3.5716-2.1977 8.2956-1.3027 13.324 1.7899 10.057 9.2259 21.38 24.281 26.787a0.92613 0.92613 0 0 0 0.62696 0c19.271-6.9214 26.053-23.482 24.508-34.799-0.77247-5.6586-3.7101-10.175-8.3613-11.182-4.4822-0.97004-10.142 1.4683-16.453 8.2832-5.4961-5.9424-10.469-8.5631-14.656-8.4902zm0.0312 1.8535c3.5442-0.0617 8.3468 2.2714 13.926 8.5469a0.92613 0.92613 0 0 0 1.3848 0c6.376-7.172 11.689-9.1806 15.375-8.3828 3.6862 0.79775 6.2113 4.4444 6.918 9.6211 1.4049 10.291-4.7341 25.947-22.992 32.666-14.234-5.2412-21.1-15.88-22.764-25.23-0.83871-4.7126-0.33769-9.0816 1.1504-12.199 1.4881-3.1176 3.8374-4.9664 7.002-5.0215z" color="#000000" color-rendering="auto" dominant-baseline="auto" image-rendering="auto" shape-rendering="auto" solid-color="#000000" style="font-feature-settings:normal;font-variant-alternates:normal;font-variant-caps:normal;font-variant-ligatures:normal;font-variant-numeric:normal;font-variant-position:normal;isolation:auto;mix-blend-mode:normal;paint-order:normal;shape-padding:0;text-decoration-color:#000000;text-decoration-line:none;text-decoration-style:solid;text-indent:0;text-orientation:mixed;text-transform:none;white-space:normal"/>
 </g>
</svg>