<svg width="100%" height="100px" viewBox="0 0 1200 100" xmlns="http://www.w3.org/2000/svg">
    <path d="M0,60
             C100,90 200,40 300,60
             C400,80 500,30 600,55
             C700,85 800,45 900,65
             C1000,90 1100,50 1200,60
             L1200,100 L0,100 Z"
          fill="none" stroke="black" stroke-width="10"/>
    <path d="M0,60
             C100,90 200,40 300,60
             C400,80 500,30 600,55
             C700,85 800,45 900,65
             C1000,90 1100,50 1200,60
             L1200,100 L0,100 Z"
          fill="white"/>
</svg>
